<svg width="47" height="53" viewBox="0 0 47 53" fill="none" xmlns="http://www.w3.org/2000/svg">
<rect x="0.879395" y="0.5" width="45.3448" height="52" rx="15.5" fill="white"/>
<rect x="0.879395" y="0.5" width="45.3448" height="52" rx="15.5" stroke="#D3D3D3"/>
<path fill-rule="evenodd" clip-rule="evenodd" d="M22.3736 19.938C22.3736 22.6561 20.2635 24.8595 17.6605 24.8595C15.0576 24.8595 12.9475 22.6561 12.9475 19.938C12.9475 17.22 15.0576 15.0166 17.6605 15.0166C20.2635 15.0166 22.3736 17.22 22.3736 19.938ZM34.9417 19.938C34.9417 22.6561 32.8316 24.8595 30.2286 24.8595C27.6257 24.8595 25.5156 22.6561 25.5156 19.938C25.5156 17.22 27.6257 15.0166 30.2286 15.0166C32.8316 15.0166 34.9417 17.22 34.9417 19.938ZM17.6605 37.9833C20.2635 37.9833 22.3736 35.7799 22.3736 33.0618C22.3736 30.3438 20.2635 28.1404 17.6605 28.1404C15.0576 28.1404 12.9475 30.3438 12.9475 33.0618C12.9475 35.7799 15.0576 37.9833 17.6605 37.9833ZM34.9417 33.0618C34.9417 35.7799 32.8316 37.9833 30.2286 37.9833C27.6257 37.9833 25.5156 35.7799 25.5156 33.0618C25.5156 30.3438 27.6257 28.1404 30.2286 28.1404C32.8316 28.1404 34.9417 30.3438 34.9417 33.0618Z" fill="black"/>
</svg>
