<svg width="62" height="61" viewBox="0 0 62 61" fill="none" xmlns="http://www.w3.org/2000/svg">
<rect width="62" height="61" rx="30.5" fill="white"/>
<path d="M42.35 16H20.65C18.0819 16 16 18.0819 16 20.65V42.35C16 44.9181 18.0819 47 20.65 47H42.35C44.9181 47 47 44.9181 47 42.35V20.65C47 18.0819 44.9181 16 42.35 16Z" fill="#1877F2"/>
<path d="M38.8822 36.3981L39.7671 32.0874H34.2557V29.2913C34.2557 28.1146 35.0242 26.9612 37.4927 26.9612H40V23.2913C40 23.2913 37.7256 23 35.5521 23C31.011 23 28.0457 25.0621 28.0457 28.8019V32.0874H23V36.3981H28.0457V47H34.2557V36.3981H38.8822Z" fill="white"/>
</svg>
