<svg width="24" height="24" viewBox="0 0 24 24" fill="none" xmlns="http://www.w3.org/2000/svg">
<path d="M12 17C11.2987 16.9562 10.6429 16.6376 10.1749 16.1135C9.70692 15.5893 9.46442 14.9018 9.5 14.2C9.5 12.66 10.62 10 12 10C13.38 10 14.5 12.66 14.5 14.2C14.5356 14.9018 14.2931 15.5893 13.8251 16.1135C13.3571 16.6376 12.7013 16.9562 12 17ZM16.88 7.5C15.71 5.05 14.37 3 12 3C9.63 3 8.29 5.05 7.12 7.5C5.95 9.95 5 12 5 15C5 18.31 8.14 21 12 21C15.86 21 19 18.31 19 15C19 12 18 9.88 16.88 7.5Z" stroke="black" stroke-width="2" stroke-linecap="round" stroke-linejoin="round"/>
</svg>
