<svg width="135" height="233" viewBox="0 0 135 233" fill="none" xmlns="http://www.w3.org/2000/svg">
<mask id="mask0_735_3357" style="mask-type:luminance" maskUnits="userSpaceOnUse" x="0" y="0" width="237" height="233">
<ellipse cx="118.5" cy="116.5" rx="118.5" ry="116.5" fill="white"/>
</mask>
<g mask="url(#mask0_735_3357)">
<path d="M-157.426 92.9878L-158.14 93.6881L-158.14 93.6882L-157.426 92.9878ZM152.967 398.665L153.681 397.965L153.681 397.965L152.967 398.665ZM153.679 399.367L154.392 400.068L155.105 399.368L154.393 398.666L153.679 399.367ZM152.253 400.768L151.539 401.469L152.252 402.171L152.965 401.47L152.253 400.768ZM151.54 400.067L152.254 399.366L152.254 399.366L151.54 400.067ZM-158.854 94.3885L-159.567 95.0889L-159.567 95.089L-158.854 94.3885ZM-159.566 93.6868L-160.278 92.985L-160.992 93.6854L-160.28 94.3871L-159.566 93.6868ZM-158.138 92.286L-157.425 91.5856L-158.137 90.8839L-158.851 91.5843L-158.138 92.286ZM-144.649 80.4234L-145.362 81.1238L-145.362 81.1238L-144.649 80.4234ZM165.744 386.101L166.458 385.4L166.458 385.4L165.744 386.101ZM166.457 386.802L167.169 387.504L167.883 386.804L167.171 386.102L166.457 386.802ZM165.03 388.204L164.316 388.904L165.029 389.606L165.743 388.905L165.03 388.204ZM164.317 387.502L165.031 386.802L165.031 386.802L164.317 387.502ZM-146.076 81.8241L-146.79 82.5245L-146.79 82.5246L-146.076 81.8241ZM-146.789 81.1224L-147.501 80.4206L-148.215 81.121L-147.502 81.8228L-146.789 81.1224ZM-145.361 79.7216L-144.647 79.0213L-145.36 78.3195L-146.073 79.0199L-145.361 79.7216ZM-131.871 67.8617L-132.585 68.5621L-132.585 68.5622L-131.871 67.8617ZM178.522 373.539L179.235 372.839L179.235 372.839L178.522 373.539ZM179.234 374.241L179.947 374.942L180.66 374.242L179.948 373.54L179.234 374.241ZM177.807 375.642L177.093 376.343L177.806 377.045L178.52 376.344L177.807 375.642ZM177.095 374.941L177.809 374.24L177.808 374.24L177.095 374.941ZM-133.299 69.2625L-134.013 69.9629L-134.013 69.963L-133.299 69.2625ZM-134.011 68.5608L-134.724 67.859L-135.438 68.5594L-134.725 69.2611L-134.011 68.5608ZM-132.584 67.16L-131.87 66.4596L-132.582 65.7579L-133.296 66.4583L-132.584 67.16ZM-119.093 55.3008L-119.807 56.0012L-119.807 56.0013L-119.093 55.3008ZM191.3 360.978L192.013 360.278L192.013 360.278L191.3 360.978ZM192.012 361.68L192.725 362.381L193.438 361.681L192.726 360.98L192.012 361.68ZM190.585 363.081L189.871 363.782L190.584 364.484L191.298 363.783L190.585 363.081ZM189.873 362.38L190.587 361.679L190.586 361.679L189.873 362.38ZM-120.521 56.7016L-121.235 57.4019L-121.235 57.402L-120.521 56.7016ZM-121.233 55.9998L-121.946 55.2981L-122.66 55.9984L-121.947 56.7002L-121.233 55.9998ZM-119.806 54.5991L-119.092 53.8987L-119.804 53.1969L-120.518 53.8973L-119.806 54.5991ZM-106.316 42.7392L-107.03 43.4395L-107.03 43.4396L-106.316 42.7392ZM204.077 348.417L204.791 347.716L204.791 347.716L204.077 348.417ZM204.789 349.118L205.502 349.82L206.215 349.119L205.503 348.418L204.789 349.118ZM203.362 350.52L202.649 351.22L203.361 351.922L204.075 351.221L203.362 350.52ZM202.65 349.818L203.364 349.118L203.364 349.118L202.65 349.818ZM-107.744 44.1399L-108.457 44.8403L-108.457 44.8404L-107.744 44.1399ZM-108.456 43.4382L-109.169 42.7364L-109.882 43.4368L-109.17 44.1386L-108.456 43.4382ZM-107.029 42.0374L-106.315 41.337L-107.027 40.6353L-107.741 41.3357L-107.029 42.0374ZM-93.5381 30.1782L-94.2519 30.8786L-94.2518 30.8787L-93.5381 30.1782ZM216.855 335.856L217.569 335.155L217.569 335.155L216.855 335.856ZM217.567 336.557L218.28 337.259L218.993 336.558L218.281 335.857L217.567 336.557ZM216.14 337.959L215.427 338.659L216.139 339.361L216.853 338.66L216.14 337.959ZM215.428 337.257L216.142 336.557L216.142 336.557L215.428 337.257ZM-94.9657 31.579L-95.6795 32.2794L-95.6794 32.2794L-94.9657 31.579ZM-95.6781 30.8772L-96.3905 30.1755L-97.1043 30.8759L-96.3919 31.5776L-95.6781 30.8772ZM-94.2505 29.4765L-93.5367 28.7761L-94.2491 28.0743L-94.9629 28.7747L-94.2505 29.4765ZM-80.7615 17.6173L-81.4753 18.3176L-81.4753 18.3177L-80.7615 17.6173ZM229.631 323.295L230.345 322.594L230.345 322.594L229.631 323.295ZM230.344 323.996L231.057 324.698L231.77 323.997L231.058 323.296L230.344 323.996ZM228.917 325.398L228.203 326.098L228.916 326.8L229.63 326.099L228.917 325.398ZM228.205 324.696L228.918 323.996L228.918 323.996L228.205 324.696ZM-82.1891 19.018L-82.9029 19.7184L-82.9028 19.7185L-82.1891 19.018ZM-82.9015 18.3163L-83.6139 17.6145L-84.3277 18.3149L-83.6153 19.0167L-82.9015 18.3163ZM-81.4739 16.9155L-80.7602 16.2151L-81.4726 15.5134L-82.1863 16.2138L-81.4739 16.9155ZM-67.9843 5.0529L-68.6981 5.75328L-68.698 5.75336L-67.9843 5.0529ZM242.409 310.73L243.123 310.03L243.122 310.03L242.409 310.73ZM243.121 311.432L243.834 312.133L244.547 311.433L243.835 310.732L243.121 311.432ZM241.694 312.833L240.98 313.534L241.693 314.236L242.407 313.535L241.694 312.833ZM240.982 312.132L241.696 311.431L241.696 311.431L240.982 312.132ZM-69.4119 6.45366L-70.1256 7.15404L-70.1256 7.15412L-69.4119 6.45366ZM-70.1243 5.75191L-70.8367 5.05016L-71.5505 5.75054L-70.838 6.45229L-70.1243 5.75191ZM-68.6967 4.35115L-67.9829 3.65077L-68.6953 2.94902L-69.4091 3.6494L-68.6967 4.35115ZM-55.2063 -7.50531L-55.9201 -6.80493L-55.92 -6.80485L-55.2063 -7.50531ZM255.187 298.172L255.901 297.472L255.9 297.472L255.187 298.172ZM255.899 298.874L256.612 299.575L257.325 298.875L256.613 298.173L255.899 298.874ZM254.472 300.275L253.758 300.976L254.471 301.678L255.185 300.977L254.472 300.275ZM253.76 299.573L254.474 298.873L254.474 298.873L253.76 299.573ZM-56.6339 -6.10455L-57.3477 -5.40417L-57.3476 -5.40409L-56.6339 -6.10455ZM-57.3463 -6.8063L-58.0587 -7.50805L-58.7725 -6.80767L-58.0601 -6.10592L-57.3463 -6.8063ZM-55.9187 -8.20706L-55.2049 -8.90744L-55.9173 -9.60919L-56.6311 -8.90881L-55.9187 -8.20706ZM-42.429 -20.0697L-43.1428 -19.3693L-43.1427 -19.3692L-42.429 -20.0697ZM267.964 285.608L268.678 284.907L268.678 284.907L267.964 285.608ZM268.676 286.309L269.389 287.011L270.102 286.31L269.39 285.609L268.676 286.309ZM267.25 287.711L266.536 288.411L267.248 289.113L267.962 288.412L267.25 287.711ZM266.537 287.009L267.251 286.309L267.251 286.309L266.537 287.009ZM-43.8566 -18.6689L-44.5704 -17.9685L-44.5703 -17.9685L-43.8566 -18.6689ZM-44.569 -19.3707L-45.2814 -20.0724L-45.9952 -19.372L-45.2828 -18.6703L-44.569 -19.3707ZM-43.1414 -20.7714L-42.4276 -21.4718L-43.14 -22.1736L-43.8538 -21.4732L-43.1414 -20.7714ZM-29.6517 -32.6313L-30.3655 -31.9309L-30.3654 -31.9309L-29.6517 -32.6313ZM280.741 273.046L281.455 272.346L281.455 272.346L280.741 273.046ZM281.454 273.748L282.166 274.449L282.88 273.749L282.167 273.047L281.454 273.748ZM280.027 275.149L279.313 275.85L280.026 276.552L280.74 275.851L280.027 275.149ZM279.314 274.447L280.028 273.747L280.028 273.747L279.314 274.447ZM-31.0793 -31.2306L-31.7931 -30.5302L-31.793 -30.5301L-31.0793 -31.2306ZM-31.7917 -31.9323L-32.5041 -32.6341L-33.2179 -31.9337L-32.5055 -31.2319L-31.7917 -31.9323ZM-30.3641 -33.3331L-29.6503 -34.0334L-30.3627 -34.7352L-31.0765 -34.0348L-30.3641 -33.3331ZM-16.8737 -45.195L-17.5875 -44.4946L-17.5874 -44.4945L-16.8737 -45.195ZM293.519 260.482L294.233 259.782L294.233 259.782L293.519 260.482ZM294.232 261.184L294.944 261.886L295.658 261.185L294.945 260.484L294.232 261.184ZM292.805 262.586L292.091 263.286L292.804 263.988L293.518 263.287L292.805 262.586ZM292.092 261.884L292.806 261.183L292.806 261.183L292.092 261.884ZM-18.3013 -43.7942L-19.0151 -43.0939L-19.015 -43.0938L-18.3013 -43.7942ZM-19.0137 -44.496L-19.7261 -45.1977L-20.4399 -44.4974L-19.7275 -43.7956L-19.0137 -44.496ZM-17.5861 -45.8968L-16.8723 -46.5971L-17.5847 -47.2989L-18.2985 -46.5985L-17.5861 -45.8968ZM-4.09715 -57.7532L-4.81094 -57.0528L-4.81086 -57.0527L-4.09715 -57.7532ZM306.296 247.924L307.01 247.224L307.01 247.224L306.296 247.924ZM307.008 248.626L307.721 249.327L308.434 248.627L307.722 247.926L307.008 248.626ZM305.581 250.027L304.868 250.728L305.58 251.43L306.294 250.729L305.581 250.027ZM304.869 249.326L305.583 248.625L305.583 248.625L304.869 249.326ZM-5.52474 -56.3525L-6.23853 -55.6521L-6.23845 -55.652L-5.52474 -56.3525ZM-6.23714 -57.0542L-6.94954 -57.756L-7.66334 -57.0556L-6.95094 -56.3538L-6.23714 -57.0542ZM-4.80955 -58.455L-4.09575 -59.1553L-4.80816 -59.8571L-5.52195 -59.1567L-4.80955 -58.455ZM8.68083 -70.3169L7.96704 -69.6165L7.96712 -69.6164L8.68083 -70.3169ZM319.074 235.36L319.788 234.66L319.788 234.66L319.074 235.36ZM319.786 236.062L320.499 236.764L321.212 236.063L320.5 235.362L319.786 236.062ZM318.359 237.464L317.646 238.164L318.358 238.866L319.072 238.165L318.359 237.464ZM317.647 236.762L318.361 236.062L318.361 236.061L317.647 236.762ZM7.25324 -68.9161L6.53945 -68.2158L6.53953 -68.2157L7.25324 -68.9161ZM6.54084 -69.6179L5.82844 -70.3196L5.11464 -69.6193L5.82704 -68.9175L6.54084 -69.6179ZM7.96843 -71.0186L8.68223 -71.719L7.96982 -72.4208L7.25603 -71.7204L7.96843 -71.0186ZM21.4581 -82.8785L20.7443 -82.1782L20.7444 -82.1781L21.4581 -82.8785ZM331.851 222.799L332.565 222.098L332.565 222.098L331.851 222.799ZM332.564 223.501L333.276 224.202L333.989 223.502L333.277 222.8L332.564 223.501ZM331.137 224.902L330.423 225.602L331.136 226.304L331.849 225.603L331.137 224.902ZM330.424 224.2L331.138 223.5L331.138 223.5L330.424 224.2ZM20.0305 -81.4778L19.3167 -80.7774L19.3168 -80.7773L20.0305 -81.4778ZM19.3181 -82.1795L18.6057 -82.8813L17.8919 -82.1809L18.6043 -81.4791L19.3181 -82.1795ZM20.7457 -83.5803L21.4595 -84.2807L20.7471 -84.9824L20.0333 -84.282L20.7457 -83.5803ZM34.2354 -95.4429L33.5216 -94.7425L33.5217 -94.7424L34.2354 -95.4429ZM344.628 210.234L345.342 209.534L345.342 209.534L344.628 210.234ZM345.341 210.936L346.054 211.638L346.767 210.937L346.055 210.236L345.341 210.936ZM343.914 212.338L343.2 213.038L343.913 213.74L344.627 213.039L343.914 212.338ZM343.202 211.636L343.915 210.936L343.915 210.935L343.202 211.636ZM32.8078 -94.0421L32.094 -93.3418L32.0941 -93.3417L32.8078 -94.0421ZM32.0954 -94.7439L31.383 -95.4456L30.6692 -94.7453L31.3816 -94.0435L32.0954 -94.7439ZM33.523 -96.1447L34.2368 -96.845L33.5244 -97.5468L32.8106 -96.8464L33.523 -96.1447ZM47.0134 -108.001L46.2996 -107.301L46.2997 -107.301L47.0134 -108.001ZM357.406 197.676L358.12 196.976L358.12 196.976L357.406 197.676ZM358.119 198.378L358.832 199.079L359.545 198.379L358.833 197.678L358.119 198.378ZM356.692 199.779L355.978 200.48L356.691 201.182L357.405 200.481L356.692 199.779ZM355.979 199.078L356.693 198.377L356.693 198.377L355.979 199.078ZM45.5858 -106.6L44.872 -105.9L44.8721 -105.9L45.5858 -106.6ZM44.8734 -107.302L44.161 -108.004L43.4472 -107.303L44.1596 -106.602L44.8734 -107.302ZM46.301 -108.703L47.0148 -109.403L46.3024 -110.105L45.5886 -109.405L46.301 -108.703ZM59.7907 -120.565L59.0769 -119.865L59.077 -119.865L59.7907 -120.565ZM370.184 185.112L370.897 184.411L370.897 184.411L370.184 185.112ZM370.896 185.814L371.609 186.515L372.322 185.815L371.61 185.113L370.896 185.814ZM369.469 187.215L368.755 187.915L369.468 188.618L370.182 187.916L369.469 187.215ZM368.757 186.513L369.471 185.813L369.47 185.813L368.757 186.513ZM58.3631 -119.165L57.6493 -118.464L57.6494 -118.464L58.3631 -119.165ZM57.6507 -119.866L56.9383 -120.568L56.2245 -119.868L56.9369 -119.166L57.6507 -119.866ZM59.0783 -121.267L59.7921 -121.968L59.0797 -122.669L58.3659 -121.969L59.0783 -121.267ZM-157.426 92.9878L-158.14 93.6882L152.253 399.366L152.967 398.665L153.681 397.965L-156.712 92.2873L-157.426 92.9878ZM152.967 398.665L152.253 399.365L152.966 400.067L153.679 399.367L154.393 398.666L153.681 397.965L152.967 398.665ZM153.679 399.367L152.967 398.665L151.54 400.067L152.253 400.768L152.965 401.47L154.392 400.068L153.679 399.367ZM152.253 400.768L152.966 400.068L152.254 399.366L151.54 400.067L150.826 400.767L151.539 401.469L152.253 400.768ZM151.54 400.067L152.254 399.366L-158.14 93.688L-158.854 94.3885L-159.567 95.089L150.826 400.767L151.54 400.067ZM-158.854 94.3885L-158.14 93.6881L-158.852 92.9864L-159.566 93.6868L-160.28 94.3871L-159.567 95.0889L-158.854 94.3885ZM-159.566 93.6868L-158.854 94.3885L-157.426 92.9878L-158.138 92.286L-158.851 91.5843L-160.278 92.985L-159.566 93.6868ZM-158.138 92.286L-158.852 92.9864L-158.14 93.6881L-157.426 92.9878L-156.712 92.2874L-157.425 91.5856L-158.138 92.286ZM-144.649 80.4234L-145.362 81.1238L165.031 386.801L165.744 386.101L166.458 385.4L-143.935 79.7229L-144.649 80.4234ZM165.744 386.101L165.031 386.801L165.743 387.503L166.457 386.802L167.171 386.102L166.458 385.4L165.744 386.101ZM166.457 386.802L165.744 386.101L164.317 387.503L165.03 388.204L165.743 388.905L167.169 387.504L166.457 386.802ZM165.03 388.204L165.744 387.504L165.031 386.802L164.317 387.502L163.604 388.203L164.316 388.904L165.03 388.204ZM164.317 387.502L165.031 386.802L-145.363 81.1237L-146.076 81.8241L-146.79 82.5246L163.604 388.203L164.317 387.502ZM-146.076 81.8241L-145.362 81.1238L-146.075 80.422L-146.789 81.1224L-147.502 81.8228L-146.79 82.5245L-146.076 81.8241ZM-146.789 81.1224L-146.076 81.8241L-144.649 80.4234L-145.361 79.7216L-146.073 79.0199L-147.501 80.4206L-146.789 81.1224ZM-145.361 79.7216L-146.075 80.422L-145.362 81.1238L-144.649 80.4234L-143.935 79.723L-144.647 79.0213L-145.361 79.7216ZM-131.871 67.8617L-132.585 68.5622L177.808 374.24L178.522 373.539L179.235 372.839L-131.158 67.1613L-131.871 67.8617ZM178.522 373.539L177.808 374.239L178.52 374.941L179.234 374.241L179.948 373.54L179.235 372.839L178.522 373.539ZM179.234 374.241L178.521 373.539L177.094 374.941L177.807 375.642L178.52 376.344L179.947 374.942L179.234 374.241ZM177.807 375.642L178.521 374.942L177.809 374.24L177.095 374.941L176.381 375.641L177.093 376.343L177.807 375.642ZM177.095 374.941L177.808 374.24L-132.585 68.562L-133.299 69.2625L-134.013 69.963L176.381 375.641L177.095 374.941ZM-133.299 69.2625L-132.585 68.5621L-133.298 67.8604L-134.011 68.5608L-134.725 69.2611L-134.013 69.9629L-133.299 69.2625ZM-134.011 68.5608L-133.299 69.2625L-131.871 67.8617L-132.584 67.16L-133.296 66.4583L-134.724 67.859L-134.011 68.5608ZM-132.584 67.16L-133.298 67.8604L-132.585 68.5621L-131.871 67.8617L-131.158 67.1614L-131.87 66.4596L-132.584 67.16ZM-119.093 55.3008L-119.807 56.0013L190.586 361.679L191.3 360.978L192.013 360.278L-118.38 54.6003L-119.093 55.3008ZM191.3 360.978L190.586 361.679L191.298 362.38L192.012 361.68L192.726 360.98L192.013 360.278L191.3 360.978ZM192.012 361.68L191.299 360.979L189.872 362.38L190.585 363.081L191.298 363.783L192.725 362.381L192.012 361.68ZM190.585 363.081L191.299 362.381L190.587 361.679L189.873 362.38L189.159 363.08L189.871 363.782L190.585 363.081ZM189.873 362.38L190.586 361.679L-119.807 56.0011L-120.521 56.7016L-121.235 57.402L189.159 363.08L189.873 362.38ZM-120.521 56.7016L-119.807 56.0012L-120.52 55.2994L-121.233 55.9998L-121.947 56.7002L-121.235 57.4019L-120.521 56.7016ZM-121.233 55.9998L-120.521 56.7016L-119.093 55.3008L-119.806 54.5991L-120.518 53.8973L-121.946 55.2981L-121.233 55.9998ZM-119.806 54.5991L-120.52 55.2994L-119.807 56.0012L-119.093 55.3008L-118.38 54.6004L-119.092 53.8987L-119.806 54.5991ZM-106.316 42.7392L-107.03 43.4396L203.363 349.117L204.077 348.417L204.791 347.716L-105.602 42.0387L-106.316 42.7392ZM204.077 348.417L203.363 349.117L204.075 349.819L204.789 349.118L205.503 348.418L204.791 347.716L204.077 348.417ZM204.789 349.118L204.077 348.417L202.65 349.818L203.362 350.52L204.075 351.221L205.502 349.82L204.789 349.118ZM203.362 350.52L204.076 349.819L203.364 349.118L202.65 349.818L201.936 350.518L202.649 351.22L203.362 350.52ZM202.65 349.818L203.364 349.118L-107.03 43.4395L-107.744 44.1399L-108.457 44.8404L201.936 350.518L202.65 349.818ZM-107.744 44.1399L-107.03 43.4395L-107.742 42.7378L-108.456 43.4382L-109.17 44.1386L-108.457 44.8403L-107.744 44.1399ZM-108.456 43.4382L-107.744 44.1399L-106.316 42.7392L-107.029 42.0374L-107.741 41.3357L-109.169 42.7364L-108.456 43.4382ZM-107.029 42.0374L-107.742 42.7378L-107.03 43.4395L-106.316 42.7392L-105.602 42.0388L-106.315 41.337L-107.029 42.0374ZM-93.5381 30.1782L-94.2518 30.8787L216.141 336.556L216.855 335.856L217.569 335.155L-92.8244 29.4778L-93.5381 30.1782ZM216.855 335.856L216.141 336.556L216.853 337.258L217.567 336.557L218.281 335.857L217.569 335.155L216.855 335.856ZM217.567 336.557L216.855 335.856L215.428 337.257L216.14 337.959L216.853 338.66L218.28 337.259L217.567 336.557ZM216.14 337.959L216.854 337.258L216.142 336.557L215.428 337.257L214.714 337.957L215.427 338.659L216.14 337.959ZM215.428 337.257L216.142 336.557L-94.252 30.8785L-94.9657 31.579L-95.6794 32.2794L214.714 337.957L215.428 337.257ZM-94.9657 31.579L-94.2519 30.8786L-94.9643 30.1769L-95.6781 30.8772L-96.3919 31.5776L-95.6795 32.2794L-94.9657 31.579ZM-95.6781 30.8772L-94.9657 31.579L-93.5381 30.1782L-94.2505 29.4765L-94.9629 28.7747L-96.3905 30.1755L-95.6781 30.8772ZM-94.2505 29.4765L-94.9643 30.1769L-94.2519 30.8786L-93.5381 30.1782L-92.8243 29.4778L-93.5367 28.7761L-94.2505 29.4765ZM-80.7615 17.6173L-81.4753 18.3177L228.918 323.995L229.631 323.295L230.345 322.594L-80.0478 16.9168L-80.7615 17.6173ZM229.631 323.295L228.918 323.995L229.63 324.697L230.344 323.996L231.058 323.296L230.345 322.594L229.631 323.295ZM230.344 323.996L229.631 323.295L228.204 324.696L228.917 325.398L229.63 326.099L231.057 324.698L230.344 323.996ZM228.917 325.398L229.631 324.697L228.918 323.996L228.205 324.696L227.491 325.396L228.203 326.098L228.917 325.398ZM228.205 324.696L228.918 323.996L-81.4754 18.3176L-82.1891 19.018L-82.9028 19.7185L227.491 325.397L228.205 324.696ZM-82.1891 19.018L-81.4753 18.3176L-82.1877 17.6159L-82.9015 18.3163L-83.6153 19.0167L-82.9029 19.7184L-82.1891 19.018ZM-82.9015 18.3163L-82.1891 19.018L-80.7615 17.6173L-81.4739 16.9155L-82.1863 16.2138L-83.6139 17.6145L-82.9015 18.3163ZM-81.4739 16.9155L-82.1877 17.6159L-81.4753 18.3176L-80.7615 17.6173L-80.0477 16.9169L-80.7602 16.2151L-81.4739 16.9155ZM-67.9843 5.0529L-68.698 5.75336L241.695 311.431L242.409 310.73L243.122 310.03L-67.2706 4.35244L-67.9843 5.0529ZM242.409 310.73L241.695 311.431L242.407 312.132L243.121 311.432L243.835 310.732L243.123 310.03L242.409 310.73ZM243.121 311.432L242.408 310.731L240.981 312.132L241.694 312.833L242.407 313.535L243.834 312.133L243.121 311.432ZM241.694 312.833L242.408 312.133L241.696 311.431L240.982 312.132L240.268 312.832L240.98 313.534L241.694 312.833ZM240.982 312.132L241.696 311.431L-68.6981 5.75319L-69.4119 6.45366L-70.1256 7.15412L240.268 312.832L240.982 312.132ZM-69.4119 6.45366L-68.6981 5.75328L-69.4105 5.05153L-70.1243 5.75191L-70.838 6.45229L-70.1256 7.15404L-69.4119 6.45366ZM-70.1243 5.75191L-69.4119 6.45366L-67.9843 5.0529L-68.6967 4.35115L-69.4091 3.6494L-70.8367 5.05016L-70.1243 5.75191ZM-68.6967 4.35115L-69.4105 5.05153L-68.6981 5.75328L-67.9843 5.0529L-67.2705 4.35252L-67.9829 3.65077L-68.6967 4.35115ZM-55.2063 -7.50531L-55.92 -6.80485L254.473 298.873L255.187 298.172L255.9 297.472L-54.4926 -8.20577L-55.2063 -7.50531ZM255.187 298.172L254.473 298.872L255.185 299.574L255.899 298.874L256.613 298.173L255.901 297.472L255.187 298.172ZM255.899 298.874L255.186 298.172L253.759 299.574L254.472 300.275L255.185 300.977L256.612 299.575L255.899 298.874ZM254.472 300.275L255.186 299.575L254.474 298.873L253.76 299.573L253.046 300.274L253.758 300.976L254.472 300.275ZM253.76 299.573L254.474 298.873L-55.9202 -6.80502L-56.6339 -6.10455L-57.3476 -5.40409L253.046 300.274L253.76 299.573ZM-56.6339 -6.10455L-55.9201 -6.80493L-56.6325 -7.50668L-57.3463 -6.8063L-58.0601 -6.10592L-57.3477 -5.40417L-56.6339 -6.10455ZM-57.3463 -6.8063L-56.6339 -6.10455L-55.2063 -7.50531L-55.9187 -8.20706L-56.6311 -8.90881L-58.0587 -7.50805L-57.3463 -6.8063ZM-55.9187 -8.20706L-56.6325 -7.50668L-55.9201 -6.80493L-55.2063 -7.50531L-54.4925 -8.20569L-55.2049 -8.90744L-55.9187 -8.20706ZM-42.429 -20.0697L-43.1427 -19.3692L267.25 286.308L267.964 285.608L268.678 284.907L-41.7153 -20.7701L-42.429 -20.0697ZM267.964 285.608L267.25 286.308L267.963 287.01L268.676 286.309L269.39 285.609L268.678 284.907L267.964 285.608ZM268.676 286.309L267.964 285.608L266.537 287.009L267.25 287.711L267.962 288.412L269.389 287.011L268.676 286.309ZM267.25 287.711L267.963 287.01L267.251 286.309L266.537 287.009L265.823 287.709L266.536 288.411L267.25 287.711ZM266.537 287.009L267.251 286.309L-43.1429 -19.3694L-43.8566 -18.6689L-44.5703 -17.9685L265.823 287.71L266.537 287.009ZM-43.8566 -18.6689L-43.1428 -19.3693L-43.8552 -20.0711L-44.569 -19.3707L-45.2828 -18.6703L-44.5704 -17.9685L-43.8566 -18.6689ZM-44.569 -19.3707L-43.8566 -18.6689L-42.429 -20.0697L-43.1414 -20.7714L-43.8538 -21.4732L-45.2814 -20.0724L-44.569 -19.3707ZM-43.1414 -20.7714L-43.8552 -20.0711L-43.1428 -19.3693L-42.429 -20.0697L-41.7152 -20.7701L-42.4276 -21.4718L-43.1414 -20.7714ZM-29.6517 -32.6313L-30.3654 -31.9309L280.028 273.747L280.741 273.046L281.455 272.346L-28.938 -33.3318L-29.6517 -32.6313ZM280.741 273.046L280.027 273.746L280.74 274.448L281.454 273.748L282.167 273.047L281.455 272.346L280.741 273.046ZM281.454 273.748L280.741 273.046L279.314 274.448L280.027 275.149L280.74 275.851L282.166 274.449L281.454 273.748ZM280.027 275.149L280.741 274.449L280.028 273.747L279.314 274.447L278.601 275.148L279.313 275.85L280.027 275.149ZM279.314 274.447L280.028 273.747L-30.3656 -31.931L-31.0793 -31.2306L-31.793 -30.5301L278.601 275.148L279.314 274.447ZM-31.0793 -31.2306L-30.3655 -31.9309L-31.0779 -32.6327L-31.7917 -31.9323L-32.5055 -31.2319L-31.7931 -30.5302L-31.0793 -31.2306ZM-31.7917 -31.9323L-31.0793 -31.2306L-29.6517 -32.6313L-30.3641 -33.3331L-31.0765 -34.0348L-32.5041 -32.6341L-31.7917 -31.9323ZM-30.3641 -33.3331L-31.0779 -32.6327L-30.3655 -31.9309L-29.6517 -32.6313L-28.9379 -33.3317L-29.6503 -34.0334L-30.3641 -33.3331ZM-16.8737 -45.195L-17.5874 -44.4945L292.806 261.183L293.519 260.482L294.233 259.782L-16.16 -45.8955L-16.8737 -45.195ZM293.519 260.482L292.805 261.183L293.518 261.884L294.232 261.184L294.945 260.484L294.233 259.782L293.519 260.482ZM294.232 261.184L293.519 260.483L292.092 261.884L292.805 262.586L293.518 263.287L294.944 261.886L294.232 261.184ZM292.805 262.586L293.519 261.885L292.806 261.183L292.092 261.884L291.379 262.584L292.091 263.286L292.805 262.586ZM292.092 261.884L292.806 261.183L-17.5876 -44.4947L-18.3013 -43.7942L-19.015 -43.0938L291.379 262.584L292.092 261.884ZM-18.3013 -43.7942L-17.5875 -44.4946L-18.2999 -45.1964L-19.0137 -44.496L-19.7275 -43.7956L-19.0151 -43.0939L-18.3013 -43.7942ZM-19.0137 -44.496L-18.3013 -43.7942L-16.8737 -45.195L-17.5861 -45.8968L-18.2985 -46.5985L-19.7261 -45.1977L-19.0137 -44.496ZM-17.5861 -45.8968L-18.2999 -45.1964L-17.5875 -44.4946L-16.8737 -45.195L-16.1599 -45.8954L-16.8723 -46.5971L-17.5861 -45.8968ZM-4.09715 -57.7532L-4.81086 -57.0527L305.582 248.625L306.296 247.924L307.01 247.224L-3.38344 -58.4537L-4.09715 -57.7532ZM306.296 247.924L305.582 248.625L306.294 249.326L307.008 248.626L307.722 247.926L307.01 247.224L306.296 247.924ZM307.008 248.626L306.296 247.924L304.869 249.326L305.581 250.027L306.294 250.729L307.721 249.327L307.008 248.626ZM305.581 250.027L306.295 249.327L305.583 248.625L304.869 249.326L304.155 250.026L304.868 250.728L305.581 250.027ZM304.869 249.326L305.583 248.625L-4.81103 -57.0529L-5.52474 -56.3525L-6.23845 -55.652L304.155 250.026L304.869 249.326ZM-5.52474 -56.3525L-4.81094 -57.0528L-5.52334 -57.7546L-6.23714 -57.0542L-6.95094 -56.3538L-6.23853 -55.6521L-5.52474 -56.3525ZM-6.23714 -57.0542L-5.52474 -56.3525L-4.09715 -57.7532L-4.80955 -58.455L-5.52195 -59.1567L-6.94954 -57.756L-6.23714 -57.0542ZM-4.80955 -58.455L-5.52334 -57.7546L-4.81094 -57.0528L-4.09715 -57.7532L-3.38335 -58.4536L-4.09575 -59.1553L-4.80955 -58.455ZM8.68083 -70.3169L7.96712 -69.6164L318.36 236.061L319.074 235.36L319.788 234.66L9.39454 -71.0174L8.68083 -70.3169ZM319.074 235.36L318.36 236.061L319.072 236.763L319.786 236.062L320.5 235.362L319.788 234.66L319.074 235.36ZM319.786 236.062L319.073 235.361L317.647 236.762L318.359 237.464L319.072 238.165L320.499 236.764L319.786 236.062ZM318.359 237.464L319.073 236.763L318.361 236.062L317.647 236.762L316.933 237.462L317.646 238.164L318.359 237.464ZM317.647 236.762L318.361 236.061L7.96695 -69.6166L7.25324 -68.9161L6.53953 -68.2157L316.933 237.462L317.647 236.762ZM7.25324 -68.9161L7.96704 -69.6165L7.25464 -70.3183L6.54084 -69.6179L5.82704 -68.9175L6.53945 -68.2158L7.25324 -68.9161ZM6.54084 -69.6179L7.25324 -68.9161L8.68083 -70.3169L7.96843 -71.0186L7.25603 -71.7204L5.82844 -70.3196L6.54084 -69.6179ZM7.96843 -71.0186L7.25464 -70.3183L7.96704 -69.6165L8.68083 -70.3169L9.39463 -71.0173L8.68223 -71.719L7.96843 -71.0186ZM21.4581 -82.8785L20.7444 -82.1781L331.137 223.499L331.851 222.799L332.565 222.098L22.1718 -83.579L21.4581 -82.8785ZM331.851 222.799L331.137 223.499L331.85 224.201L332.564 223.501L333.277 222.8L332.565 222.098L331.851 222.799ZM332.564 223.501L331.851 222.799L330.424 224.201L331.137 224.902L331.849 225.603L333.276 224.202L332.564 223.501ZM331.137 224.902L331.85 224.202L331.138 223.5L330.424 224.2L329.71 224.901L330.423 225.602L331.137 224.902ZM330.424 224.2L331.138 223.5L20.7442 -82.1782L20.0305 -81.4778L19.3168 -80.7773L329.711 224.901L330.424 224.2ZM20.0305 -81.4778L20.7443 -82.1782L20.0319 -82.8799L19.3181 -82.1795L18.6043 -81.4791L19.3167 -80.7774L20.0305 -81.4778ZM19.3181 -82.1795L20.0305 -81.4778L21.4581 -82.8785L20.7457 -83.5803L20.0333 -84.282L18.6057 -82.8813L19.3181 -82.1795ZM20.7457 -83.5803L20.0319 -82.8799L20.7443 -82.1782L21.4581 -82.8785L22.1719 -83.5789L21.4595 -84.2807L20.7457 -83.5803ZM34.2354 -95.4429L33.5217 -94.7424L343.915 210.935L344.628 210.234L345.342 209.534L34.9491 -96.1434L34.2354 -95.4429ZM344.628 210.234L343.915 210.935L344.627 211.637L345.341 210.936L346.055 210.236L345.342 209.534L344.628 210.234ZM345.341 210.936L344.628 210.235L343.201 211.636L343.914 212.338L344.627 213.039L346.054 211.638L345.341 210.936ZM343.914 212.338L344.628 211.637L343.915 210.936L343.202 211.636L342.488 212.336L343.2 213.038L343.914 212.338ZM343.202 211.636L343.915 210.935L33.5215 -94.7426L32.8078 -94.0421L32.0941 -93.3417L342.488 212.336L343.202 211.636ZM32.8078 -94.0421L33.5216 -94.7425L32.8092 -95.4443L32.0954 -94.7439L31.3816 -94.0435L32.094 -93.3418L32.8078 -94.0421ZM32.0954 -94.7439L32.8078 -94.0421L34.2354 -95.4429L33.523 -96.1447L32.8106 -96.8464L31.383 -95.4456L32.0954 -94.7439ZM33.523 -96.1447L32.8092 -95.4443L33.5216 -94.7425L34.2354 -95.4429L34.9492 -96.1433L34.2368 -96.845L33.523 -96.1447ZM47.0134 -108.001L46.2997 -107.301L356.693 198.377L357.406 197.676L358.12 196.976L47.7271 -108.702L47.0134 -108.001ZM357.406 197.676L356.693 198.377L357.405 199.078L358.119 198.378L358.833 197.678L358.12 196.976L357.406 197.676ZM358.119 198.378L357.406 197.677L355.979 199.078L356.692 199.779L357.405 200.481L358.832 199.079L358.119 198.378ZM356.692 199.779L357.406 199.079L356.693 198.377L355.979 199.078L355.266 199.778L355.978 200.48L356.692 199.779ZM355.979 199.078L356.693 198.377L46.2995 -107.301L45.5858 -106.6L44.8721 -105.9L355.266 199.778L355.979 199.078ZM45.5858 -106.6L46.2996 -107.301L45.5872 -108.002L44.8734 -107.302L44.1596 -106.602L44.872 -105.9L45.5858 -106.6ZM44.8734 -107.302L45.5858 -106.6L47.0134 -108.001L46.301 -108.703L45.5886 -109.405L44.161 -108.004L44.8734 -107.302ZM46.301 -108.703L45.5872 -108.002L46.2996 -107.301L47.0134 -108.001L47.7272 -108.701L47.0148 -109.403L46.301 -108.703ZM59.7907 -120.565L59.077 -119.865L369.47 185.812L370.184 185.112L370.897 184.411L60.5044 -121.266L59.7907 -120.565ZM370.184 185.112L369.47 185.812L370.182 186.514L370.896 185.814L371.61 185.113L370.897 184.411L370.184 185.112ZM370.896 185.814L370.183 185.112L368.756 186.514L369.469 187.215L370.182 187.916L371.609 186.515L370.896 185.814ZM369.469 187.215L370.183 186.515L369.471 185.813L368.757 186.513L368.043 187.214L368.755 187.915L369.469 187.215ZM368.757 186.513L369.47 185.813L59.0768 -119.865L58.3631 -119.165L57.6494 -118.464L368.043 187.214L368.757 186.513ZM58.3631 -119.165L59.0769 -119.865L58.3645 -120.567L57.6507 -119.866L56.9369 -119.166L57.6493 -118.464L58.3631 -119.165ZM57.6507 -119.866L58.3631 -119.165L59.7907 -120.565L59.0783 -121.267L58.3659 -121.969L56.9383 -120.568L57.6507 -119.866ZM59.0783 -121.267L58.3645 -120.567L59.0769 -119.865L59.7907 -120.565L60.5045 -121.266L59.7921 -121.968L59.0783 -121.267Z" fill="#A9A9A9"/>
</g>
</svg>
