<svg width="104" height="105" viewBox="0 0 104 105" fill="none" xmlns="http://www.w3.org/2000/svg">
<rect width="104" height="105" rx="52" fill="#111111"/>
<g clip-path="url(#clip0_735_3225)">
<path d="M74.5 79.8931H49.5M29.5 79.8931H39.5" stroke="white" stroke-width="5" stroke-linecap="round"/>
<path d="M69.5 77.0833V59.875" stroke="white" stroke-width="5" stroke-linecap="round"/>
<path d="M34.5 77.0833V59.875" stroke="white" stroke-width="5" stroke-linecap="round"/>
<path d="M51.9997 27.9165H40.6803C37.6732 27.9165 36.1697 27.9165 34.9614 28.6508C33.7532 29.3851 33.0808 30.7075 31.736 33.3522L28.2269 42.0748C27.4162 44.09 26.7069 46.4652 28.0716 48.167C28.9871 49.3087 30.4063 50.0415 31.9997 50.0415C34.7611 50.0415 36.9997 47.8403 36.9997 45.1248C36.9997 47.8403 39.2383 50.0415 41.9997 50.0415C44.7611 50.0415 46.9997 47.8403 46.9997 45.1248C46.9997 47.8403 49.2382 50.0415 51.9997 50.0415C54.7612 50.0415 56.9997 47.8403 56.9997 45.1248C56.9997 47.8403 59.2382 50.0415 61.9997 50.0415C64.7612 50.0415 66.9997 47.8403 66.9997 45.1248C66.9997 47.8403 69.2382 50.0415 71.9997 50.0415C73.5932 50.0415 75.0124 49.3087 75.9279 48.167C77.2927 46.4652 76.5834 44.09 75.7727 42.0748L72.2637 33.3522C70.9189 30.7075 70.2464 29.3851 69.0382 28.6508C67.8299 27.9165 66.3264 27.9165 63.3194 27.9165H61.9999" stroke="white" stroke-width="5" stroke-linecap="round" stroke-linejoin="round"/>
</g>
<defs>
<clipPath id="clip0_735_3225">
<rect width="60" height="59" fill="white" transform="translate(22 23)"/>
</clipPath>
</defs>
</svg>
