<svg width="104" height="105" viewBox="0 0 104 105" fill="none" xmlns="http://www.w3.org/2000/svg">
<rect width="104" height="105" rx="52" fill="#111111"/>
<g clip-path="url(#clip0_735_3255)">
<path fill-rule="evenodd" clip-rule="evenodd" d="M51.5 52.5C48.0644 52.5 45.2705 49.7193 45.2705 46.3C45.2705 42.8807 48.0644 40.1 51.5 40.1C54.9356 40.1 57.7295 42.8807 57.7295 46.3C57.7295 49.7193 54.9356 52.5 51.5 52.5ZM57.3526 53.5431C59.8242 51.5637 61.2648 48.3629 60.7353 44.8584C60.1201 40.7927 56.7219 37.5394 52.6198 37.0651C46.9587 36.4094 42.1557 40.7959 42.1557 46.3C42.1557 49.2295 43.52 51.8396 45.6474 53.5431C40.4208 55.4976 36.6052 60.0872 36.0072 66.281C35.92 67.1971 36.6379 68 37.563 68C38.3557 68 39.0316 67.4048 39.1017 66.6189C39.7262 59.7013 45.0478 55.6 51.5 55.6C57.9522 55.6 63.2738 59.7013 63.8983 66.6189C63.9684 67.4048 64.6443 68 65.437 68C66.3621 68 67.08 67.1971 66.9928 66.281C66.3948 60.0872 62.5792 55.4976 57.3526 53.5431Z" fill="white"/>
</g>
<defs>
<clipPath id="clip0_735_3255">
<rect width="31" height="31" fill="white" transform="translate(36 37)"/>
</clipPath>
</defs>
</svg>
