<svg width="104" height="105" viewBox="0 0 104 105" fill="none" xmlns="http://www.w3.org/2000/svg">
<rect width="104" height="105" rx="52" fill="#111111"/>
<path d="M76.5819 42.7605L52.9569 27.5105C52.5255 27.232 52.0186 27.0834 51.5 27.0835C50.9824 27.0839 50.4765 27.2324 50.0458 27.5105L26.4208 42.7605C25.9522 43.063 25.5965 43.5035 25.4063 44.0167C25.2161 44.53 25.2014 45.0889 25.3644 45.6109C25.5275 46.1328 25.8595 46.5902 26.3116 46.9154C26.7637 47.2406 27.3118 47.4164 27.875 47.4168H30.5V75.3752C30.5 76.0493 30.7766 76.6957 31.2689 77.1724C31.7612 77.649 32.4288 77.9168 33.125 77.9168H69.875C70.5712 77.9168 71.2389 77.649 71.7312 77.1724C72.2235 76.6957 72.5 76.0493 72.5 75.3752V47.4168H75.125C75.6887 47.4175 76.2376 47.2425 76.6905 46.9177C77.1435 46.5929 77.4764 46.1355 77.6401 45.6133C77.8038 45.0911 77.7895 44.5317 77.5994 44.0179C77.4093 43.5041 77.0509 43.0633 76.5819 42.7605ZM67.25 72.8335H35.75V42.8418L51.5 32.6752L67.25 42.8418V72.8335Z" fill="white"/>
</svg>
