<svg width="61" height="61" viewBox="0 0 61 61" fill="none" xmlns="http://www.w3.org/2000/svg">
<rect width="61" height="61" rx="30.5" fill="white"/>
<path d="M38.75 16.0625H22.25C18.8327 16.0625 16.0625 18.8327 16.0625 22.25V38.75C16.0625 42.1673 18.8327 44.9375 22.25 44.9375H38.75C42.1673 44.9375 44.9375 42.1673 44.9375 38.75V22.25C44.9375 18.8327 42.1673 16.0625 38.75 16.0625Z" fill="url(#paint0_radial_735_3381)"/>
<path d="M38.75 16.0625H22.25C18.8327 16.0625 16.0625 18.8327 16.0625 22.25V38.75C16.0625 42.1673 18.8327 44.9375 22.25 44.9375H38.75C42.1673 44.9375 44.9375 42.1673 44.9375 38.75V22.25C44.9375 18.8327 42.1673 16.0625 38.75 16.0625Z" fill="url(#paint1_radial_735_3381)"/>
<path d="M38.75 16.0625H22.25C18.8327 16.0625 16.0625 18.8327 16.0625 22.25V38.75C16.0625 42.1673 18.8327 44.9375 22.25 44.9375H38.75C42.1673 44.9375 44.9375 42.1673 44.9375 38.75V22.25C44.9375 18.8327 42.1673 16.0625 38.75 16.0625Z" fill="url(#paint2_radial_735_3381)"/>
<path d="M37.7188 24.8281C37.7188 25.6824 37.0262 26.375 36.1719 26.375C35.3176 26.375 34.625 25.6824 34.625 24.8281C34.625 23.9738 35.3176 23.2812 36.1719 23.2812C37.0262 23.2812 37.7188 23.9738 37.7188 24.8281Z" fill="white"/>
<path fill-rule="evenodd" clip-rule="evenodd" d="M30.5 35.6562C33.3477 35.6562 35.6562 33.3477 35.6562 30.5C35.6562 27.6523 33.3477 25.3438 30.5 25.3438C27.6523 25.3438 25.3438 27.6523 25.3438 30.5C25.3438 33.3477 27.6523 35.6562 30.5 35.6562ZM30.5 33.5938C32.2087 33.5938 33.5938 32.2087 33.5938 30.5C33.5938 28.7913 32.2087 27.4062 30.5 27.4062C28.7913 27.4062 27.4062 28.7913 27.4062 30.5C27.4062 32.2087 28.7913 33.5938 30.5 33.5938Z" fill="white"/>
<path fill-rule="evenodd" clip-rule="evenodd" d="M20.1875 30.0875C20.1875 26.6222 20.1875 24.8895 20.8619 23.5659C21.4551 22.4017 22.4017 21.4551 23.5659 20.8619C24.8895 20.1875 26.6222 20.1875 30.0875 20.1875H30.9125C34.3778 20.1875 36.1105 20.1875 37.434 20.8619C38.5983 21.4551 39.5449 22.4017 40.1381 23.5659C40.8125 24.8895 40.8125 26.6222 40.8125 30.0875V30.9125C40.8125 34.3778 40.8125 36.1105 40.1381 37.434C39.5449 38.5983 38.5983 39.5449 37.434 40.1381C36.1105 40.8125 34.3778 40.8125 30.9125 40.8125H30.0875C26.6222 40.8125 24.8895 40.8125 23.5659 40.1381C22.4017 39.5449 21.4551 38.5983 20.8619 37.434C20.1875 36.1105 20.1875 34.3778 20.1875 30.9125V30.0875ZM30.0875 22.25H30.9125C32.6792 22.25 33.8801 22.2516 34.8085 22.3274C35.7128 22.4013 36.1752 22.5352 36.4977 22.6996C37.2739 23.0951 37.9049 23.7261 38.3004 24.5023C38.4648 24.8248 38.5987 25.2872 38.6726 26.1915C38.7484 27.1199 38.75 28.3208 38.75 30.0875V30.9125C38.75 32.6792 38.7484 33.8801 38.6726 34.8085C38.5987 35.7128 38.4648 36.1752 38.3004 36.4977C37.9049 37.2739 37.2739 37.9049 36.4977 38.3004C36.1752 38.4648 35.7128 38.5987 34.8085 38.6726C33.8801 38.7484 32.6792 38.75 30.9125 38.75H30.0875C28.3208 38.75 27.1199 38.7484 26.1915 38.6726C25.2872 38.5987 24.8248 38.4648 24.5023 38.3004C23.7261 37.9049 23.0951 37.2739 22.6996 36.4977C22.5352 36.1752 22.4013 35.7128 22.3274 34.8085C22.2516 33.8801 22.25 32.6792 22.25 30.9125V30.0875C22.25 28.3208 22.2516 27.1199 22.3274 26.1915C22.4013 25.2872 22.5352 24.8248 22.6996 24.5023C23.0951 23.7261 23.7261 23.0951 24.5023 22.6996C24.8248 22.5352 25.2872 22.4013 26.1915 22.3274C27.1199 22.2516 28.3208 22.25 30.0875 22.25Z" fill="white"/>
<defs>
<radialGradient id="paint0_radial_735_3381" cx="0" cy="0" r="1" gradientUnits="userSpaceOnUse" gradientTransform="translate(26.375 37.7188) rotate(-55.3758) scale(26.3171)">
<stop stop-color="#B13589"/>
<stop offset="0.79309" stop-color="#C62F94"/>
<stop offset="1" stop-color="#8A3AC8"/>
</radialGradient>
<radialGradient id="paint1_radial_735_3381" cx="0" cy="0" r="1" gradientUnits="userSpaceOnUse" gradientTransform="translate(25.3438 45.9688) rotate(-65.1363) scale(23.3003)">
<stop stop-color="#E0E8B7"/>
<stop offset="0.444662" stop-color="#FB8A2E"/>
<stop offset="0.71474" stop-color="#E2425C"/>
<stop offset="1" stop-color="#E2425C" stop-opacity="0"/>
</radialGradient>
<radialGradient id="paint2_radial_735_3381" cx="0" cy="0" r="1" gradientUnits="userSpaceOnUse" gradientTransform="translate(14.5156 17.0938) rotate(-8.1301) scale(40.1062 8.57831)">
<stop offset="0.156701" stop-color="#406ADC"/>
<stop offset="0.467799" stop-color="#6A45BE"/>
<stop offset="1" stop-color="#6A45BE" stop-opacity="0"/>
</radialGradient>
</defs>
</svg>
