<svg width="286" height="14" viewBox="0 0 286 14" fill="none" xmlns="http://www.w3.org/2000/svg">
<path d="M1.18406 7.72223C3.55907 6.18193 12.4653 4.99462 16.6216 4.5935C35.6216 2.66816 66.1997 1.70539 78.9653 2.18677C91.731 2.66816 77.7778 3.63077 65.6059 4.59346C53.4341 5.55614 62.3403 6.03749 73.3247 5.55614C84.3091 5.0748 107.168 4.59346 126.762 4.35278C146.356 4.11211 126.465 3.63077 107.168 3.63077C87.8716 3.63077 88.1684 2.66812 94.9966 2.18677C101.825 1.70543 117.262 -0.21995 135.372 0.0207225C153.481 0.261395 196.231 0.742739 214.637 2.42745C233.044 4.11215 271.044 8.68492 280.247 10.129C289.45 11.573 288.262 15.6644 271.934 13.2577C255.606 10.851 221.762 6.51887 147.543 5.79686C73.3247 5.07484 16.9184 9.16627 10.9809 10.851C5.0434 12.5357 0.887147 12.5357 3.26215 11.0916C5.63715 9.64761 6.23094 9.40694 3.85594 9.88829C1.48094 10.3696 -1.78469 9.64761 1.18406 7.72223Z" fill="#A9A9A9"/>
</svg>
